#!OML:ASF I:\Actors\actors\Patient Classification 2\Patient 1\Session 1\actor1.ASF
:FULLY-SPECIFIED
:DEGREES
128
root -0.763051 18.5923 6.00034 -3.4035 -4.75672 -5.9956
lowerback 9.272 -0.346638 1.54624
upperback -0.964841 -0.185955 1.63816
thorax -6.22014 -0.115057 0.871393
lowerneck -15.8383 -7.89043 -9.88434
upperneck 16.3914 -9.98514 7.63177
head 8.60755 -4.61277 2.91617
rclavicle 8.32411e-016 -1.35174e-014
rhumerus -2.15918 -52.472 -20.5316
rradius 42.9898
rwrist -46.4645
rhand -2.80575 -31.9188
rfingers 7.12502
rthumb 22.9004 -60.579
lclavicle 8.32411e-016 -1.35174e-014
lhumerus 17.9421 65.8382 40.0199
lradius 41.487
lwrist 40.2538
lhand -10.6409 -17.1623
lfingers 7.12502
lthumb 15.3664 12.2466
rfemur 12.7628 -1.45069 19.546
rtibia -5.24792e-014
rfoot -13.2377 -4.97096
rtoes -9.98403
lfemur 0.003771 -5.45508 -8.79195
ltibia 24.7042
lfoot -24.2001 11.3006
ltoes -55.6438
129
root -0.760139 18.5793 6.05598 -3.56515 -4.58996 -6.013
lowerback 9.65361 -0.417982 1.71661
upperback -1.55366 -0.243557 1.53059
thorax -7.0635 -0.155337 0.681244
lowerneck -16.2007 -8.01869 -9.85615
upperneck 16.939 -10.1471 7.49403
head 8.8639 -4.68843 2.82866
rclavicle -1.61513e-016 1.63003e-014
rhumerus -3.80852 -51.0787 -17.2503
rradius 44.1396
rwrist -48.4488
rhand -2.70212 -32.0061
rfingers 7.12502
rthumb 22.9998 -60.6539
lclavicle -1.61513e-016 1.63003e-014
lhumerus 16.9456 64.8163 36.7185
lradius 41.8265
lwrist 42.4892
lhand -11.1512 -17.1849
lfingers 7.12502
lthumb 14.8749 12.2611
rfemur 13.1401 -1.60596 19.5067
rtibia -3.18055e-014
rfoot -13.3841 -4.83073
rtoes -9.82409
lfemur 0.346259 -6.26859 -8.97801
ltibia 24.7452
lfoot -24.6687 11.703
ltoes -55.5015
130
root -0.762612 18.5681 6.10997 -3.70526 -4.49152 -6.06163
lowerback 9.45606 -0.467395 1.63379
upperback -1.69573 -0.317348 1.59802
thorax -7.10094 -0.18704 0.809867
lowerneck -16.8773 -8.10706 -9.77969
upperneck 17.1488 -10.1875 7.26526
head 9.04257 -4.70589 2.71086
rclavicle -2.01269e-015 7.95139e-015
rhumerus -4.65931 -50.4521 -14.8191
rradius 45.4431
rwrist -50.3392
rhand -2.9128 -31.6002
rfingers 7.12502
rthumb 22.7976 -60.2731
lclavicle -2.01269e-015 7.95139e-015
lhumerus 16.5751 64.2956 34.4442
lradius 42.4167
lwrist 44.9984
lhand -11.8596 -17.3675
lfingers 7.12502
lthumb 14.1923 12.1276
rfemur 13.4974 -1.69957 19.5333
rtibia -6.36111e-015
rfoot -13.5329 -4.71665
rtoes -9.72738
lfemur 0.663441 -6.72463 -9.03811
ltibia 24.8042
lfoot -25.0397 11.8543
ltoes -55.4152
131
root -0.768033 18.5565 6.16341 -3.81118 -4.57838 -6.10718
lowerback 9.10465 -0.481236 1.48374
upperback -1.72836 -0.3542 1.72351
thorax -6.93252 -0.196014 1.02814
lowerneck -17.5925 -8.15786 -9.82288
upperneck 17.165 -10.1481 7.14243
head 9.16714 -4.68322 2.65932
rclavicle 8.49804e-015 0
rhumerus -4.85775 -50.5372 -13.1478
rradius 46.5471
rwrist -51.5058
rhand -3.05989 -30.8484
rfingers 7.12502
rthumb 22.6565 -59.5385
lclavicle 8.49804e-015 0
lhumerus 17.1612 64.4931 33.4389
lradius 42.9669
lwrist 46.6963
lhand -12.3143 -17.6719
lfingers 7.12502
lthumb 13.7541 11.8535
rfemur 13.7994 -1.61148 19.5862
rtibia 2.70347e-014
rfoot -13.655 -4.64488
rtoes -9.95825
lfemur 0.986621 -6.87509 -9.05515
ltibia 24.8788
lfoot -25.4285 11.914
ltoes -55.3647
132
root -0.77259 18.545 6.21726 -3.8988 -4.71399 -6.15977
lowerback 9.35469 -0.475216 1.68012
upperback -2.32684 -0.307604 1.63893
thorax -7.7176 -0.186178 0.832461
lowerneck -17.6251 -8.18029 -10.009
upperneck 17.51 -10.1809 7.26588
head 9.31315 -4.69609 2.72364
rclavicle 1.96548e-014 -3.02153e-014
rhumerus -5.40868 -50.3912 -11.5126
rradius 47.392
rwrist -52.2549
rhand -3.00985 -30.3792
rfingers 7.12502
rthumb 22.7045 -59.0635
lclavicle 1.96548e-014 -3.02153e-014
lhumerus 17.6213 64.1358 32.3322
lradius 43.4149
lwrist 47.7087
lhand -12.5072 -17.7724
lfingers 7.12502
lthumb 13.5682 11.7655
rfemur 14.076 -1.47542 19.6483
rtibia -3.18055e-014
rfoot -13.7937 -4.56856
rtoes -9.9552
lfemur 1.32473 -6.98399 -9.0717
ltibia 24.9274
lfoot -25.7918 12.0119
ltoes -55.3647
133
root -0.77584 18.5306 6.27009 -4.04049 -4.83576 -6.19067
lowerback 9.10836 -0.501943 1.64478
upperback -2.59443 -0.345917 1.67628
thorax -7.86203 -0.203157 0.898577
lowerneck -17.6043 -8.12925 -10.0833
upperneck 17.5756 -10.1017 7.28184
head 9.32992 -4.6632 2.75352
rclavicle 2.51214e-014 -2.46493e-014
rhumerus -4.91498 -51.0605 -10.7364
rradius 47.8707
rwrist -52.6132
rhand -2.91946 -30.1709
rfingers 7.12502
rthumb 22.7913 -58.8445
lclavicle 2.51214e-014 -2.46493e-014
lhumerus 18.3458 64.1779 31.645
lradius 43.8507
lwrist 48.7116
lhand -12.9349 -17.7447
lfingers 7.12502
lthumb 13.1559 11.8202
rfemur 14.4146 -1.34981 19.6775
rtibia 1.59028e-015
rfoot -13.9533 -4.47667
rtoes -9.74953
lfemur 1.71633 -7.12832 -9.12927
ltibia 24.9632
lfoot -26.0946 12.0935
ltoes -55.3036
